<mxfile host="app.diagrams.net" modified="2021-03-09T06:53:47.144Z" agent="5.0 (X11; Linux x86_64) AppleWebKit/537.36 (KHTML, like Gecko) Chrome/87.0.4280.66 Safari/537.36" etag="pIWU6wIgoYMc-3TQ0KM-" version="14.4.5" type="github">
  <diagram id="z_sxrmqJ_TUQCgIVzqiE" name="Page-1">
    <mxGraphModel dx="942" dy="609" grid="1" gridSize="10" guides="1" tooltips="1" connect="1" arrows="1" fold="1" page="1" pageScale="1" pageWidth="827" pageHeight="1169" math="0" shadow="0">
      <root>
        <mxCell id="0" />
        <mxCell id="1" parent="0" />
        <mxCell id="jHfLKHypAH-0vQRmPWH2-1" value="&lt;font style=&quot;font-size: 20px&quot;&gt;surveillance video&lt;/font&gt;" style="rounded=1;whiteSpace=wrap;html=1;" vertex="1" parent="1">
          <mxGeometry x="198" y="80" width="120" height="60" as="geometry" />
        </mxCell>
        <mxCell id="jHfLKHypAH-0vQRmPWH2-2" value="&lt;font style=&quot;font-size: 18px&quot;&gt;Pose Estimation obtain skeleton data&lt;/font&gt;" style="rounded=0;whiteSpace=wrap;html=1;" vertex="1" parent="1">
          <mxGeometry x="158" y="280" width="200" height="60" as="geometry" />
        </mxCell>
        <mxCell id="jHfLKHypAH-0vQRmPWH2-4" value="&lt;font style=&quot;font-size: 18px&quot;&gt;Determin Human Falls&lt;/font&gt;" style="rounded=0;whiteSpace=wrap;html=1;" vertex="1" parent="1">
          <mxGeometry x="158" y="380" width="200" height="60" as="geometry" />
        </mxCell>
        <mxCell id="jHfLKHypAH-0vQRmPWH2-5" value="" style="endArrow=classic;html=1;exitX=0.5;exitY=1;exitDx=0;exitDy=0;entryX=0;entryY=0.5;entryDx=0;entryDy=0;" edge="1" parent="1" source="jHfLKHypAH-0vQRmPWH2-4" target="jHfLKHypAH-0vQRmPWH2-6">
          <mxGeometry width="50" height="50" relative="1" as="geometry">
            <mxPoint x="268" y="330" as="sourcePoint" />
            <mxPoint x="318" y="210" as="targetPoint" />
            <Array as="points">
              <mxPoint x="258" y="480" />
              <mxPoint x="80" y="480" />
              <mxPoint x="80" y="210" />
            </Array>
          </mxGeometry>
        </mxCell>
        <mxCell id="jHfLKHypAH-0vQRmPWH2-6" value="&lt;font style=&quot;font-size: 18px&quot;&gt;Read Frame&lt;/font&gt;" style="rounded=0;whiteSpace=wrap;html=1;" vertex="1" parent="1">
          <mxGeometry x="198" y="180" width="120" height="60" as="geometry" />
        </mxCell>
        <mxCell id="jHfLKHypAH-0vQRmPWH2-8" value="" style="endArrow=classic;html=1;exitX=0.5;exitY=1;exitDx=0;exitDy=0;" edge="1" parent="1" source="jHfLKHypAH-0vQRmPWH2-1" target="jHfLKHypAH-0vQRmPWH2-6">
          <mxGeometry width="50" height="50" relative="1" as="geometry">
            <mxPoint x="180" y="310" as="sourcePoint" />
            <mxPoint x="230" y="260" as="targetPoint" />
          </mxGeometry>
        </mxCell>
        <mxCell id="jHfLKHypAH-0vQRmPWH2-9" value="" style="endArrow=classic;html=1;exitX=0.5;exitY=1;exitDx=0;exitDy=0;entryX=0.5;entryY=0;entryDx=0;entryDy=0;" edge="1" parent="1" source="jHfLKHypAH-0vQRmPWH2-6" target="jHfLKHypAH-0vQRmPWH2-2">
          <mxGeometry width="50" height="50" relative="1" as="geometry">
            <mxPoint x="268" y="150" as="sourcePoint" />
            <mxPoint x="268" y="190" as="targetPoint" />
          </mxGeometry>
        </mxCell>
        <mxCell id="jHfLKHypAH-0vQRmPWH2-10" value="" style="endArrow=classic;html=1;exitX=0.5;exitY=1;exitDx=0;exitDy=0;" edge="1" parent="1" source="jHfLKHypAH-0vQRmPWH2-2" target="jHfLKHypAH-0vQRmPWH2-4">
          <mxGeometry width="50" height="50" relative="1" as="geometry">
            <mxPoint x="278" y="160" as="sourcePoint" />
            <mxPoint x="278" y="200" as="targetPoint" />
          </mxGeometry>
        </mxCell>
        <mxCell id="jHfLKHypAH-0vQRmPWH2-14" value="" style="shape=curlyBracket;whiteSpace=wrap;html=1;rounded=1;" vertex="1" parent="1">
          <mxGeometry x="358" y="350" width="20" height="120" as="geometry" />
        </mxCell>
        <mxCell id="jHfLKHypAH-0vQRmPWH2-15" value="&lt;font style=&quot;font-size: 18px&quot;&gt;Rule&lt;br&gt;&lt;/font&gt;&lt;font&gt;&amp;nbsp;1. velocity of descent at the center of hip&amp;nbsp; joint&amp;nbsp;&lt;br&gt;&amp;nbsp;2. angle between the centerline of the human and the ground&lt;br&gt;&amp;nbsp;3. width to height ratio of the human body&#39;s external rectangular&lt;br&gt;&lt;/font&gt;" style="text;html=1;strokeColor=none;fillColor=none;align=left;verticalAlign=middle;whiteSpace=wrap;rounded=0;" vertex="1" parent="1">
          <mxGeometry x="387" y="340" width="440" height="70" as="geometry" />
        </mxCell>
        <mxCell id="jHfLKHypAH-0vQRmPWH2-16" value="&lt;font style=&quot;font-size: 18px&quot;&gt;Supervised learning&lt;br&gt;&lt;/font&gt;&lt;font&gt;&amp;nbsp;1. ML: GMM、SVM、RF&lt;br&gt;&amp;nbsp;2. DL: LSTM、3DConv&lt;br&gt;&lt;/font&gt;" style="text;html=1;strokeColor=none;fillColor=none;align=left;verticalAlign=middle;whiteSpace=wrap;rounded=0;strokeWidth=18;" vertex="1" parent="1">
          <mxGeometry x="387" y="420" width="293" height="50" as="geometry" />
        </mxCell>
      </root>
    </mxGraphModel>
  </diagram>
</mxfile>
